<svg width="11" height="21" viewBox="0 0 11 21" fill="none" xmlns="http://www.w3.org/2000/svg">
<path d="M8.513 20.4185C8.29514 20.4192 8.07987 20.3711 7.88303 20.2778C7.68618 20.1844 7.51276 20.0481 7.3755 19.8789L0.331753 11.1289C0.117259 10.868 0 10.5407 0 10.2029C0 9.86508 0.117259 9.53777 0.331753 9.27682L7.62342 0.526826C7.87095 0.22901 8.22666 0.0417247 8.61228 0.00617094C8.9979 -0.0293828 9.38185 0.0897075 9.67967 0.337243C9.97749 0.584778 10.1648 0.940482 10.2003 1.3261C10.2359 1.71173 10.1168 2.09568 9.86925 2.39349L3.3505 10.2102L9.6505 18.0268C9.82883 18.2409 9.94211 18.5016 9.97694 18.778C10.0118 19.0544 9.96667 19.335 9.84701 19.5866C9.72734 19.8382 9.53811 20.0503 9.3017 20.1977C9.06529 20.3451 8.79159 20.4217 8.513 20.4185Z" fill="#0E5EA3"/>
</svg>
