<svg width="18" height="16" viewBox="0 0 18 16" fill="none" xmlns="http://www.w3.org/2000/svg">
<path d="M17.3077 16C17.1864 16.0008 17.067 15.9709 16.9615 15.9133L3.80769 8.58122C3.70115 8.52309 3.61253 8.43878 3.55087 8.3369C3.48921 8.23503 3.45673 8.11923 3.45673 8.00132C3.45673 7.88341 3.48921 7.76761 3.55087 7.66573C3.61253 7.56386 3.70115 7.47955 3.80769 7.42141L16.9615 0.0893017C17.0668 0.0307992 17.1862 0 17.3077 0C17.4292 0 17.5486 0.0307992 17.6538 0.0893017C17.7595 0.148028 17.8471 0.23259 17.9079 0.334425C17.9687 0.43626 18.0005 0.551751 18 0.669205V15.3334C18 15.5102 17.9271 15.6798 17.7972 15.8048C17.6674 15.9298 17.4913 16 17.3077 16ZM5.53846 8.00132L16.6154 14.1803V1.82235L5.53846 8.00132ZM0 0.00264934H1.38461V16H0V0.00264934Z" fill="#219EBC"/>
</svg>
