<svg width="47" height="40" viewBox="0 0 47 40" fill="none" xmlns="http://www.w3.org/2000/svg">
<path d="M2.15747 15.6069C-0.489234 17.7119 -0.484284 21.7332 2.16666 23.8326L20.6278 38.4443C23.4124 40.649 27.5136 38.6663 27.5157 35.1131L27.5179 31.2247L40.8843 31.224C42.2758 31.2241 43.6104 30.6717 44.5949 29.6883C45.5793 28.7049 46.1331 27.3709 46.1346 25.9794L46.1466 13.4756C46.1472 12.7858 46.0118 12.1026 45.7482 11.4651C45.4846 10.8276 45.098 10.2483 44.6104 9.76032C44.1228 9.27233 43.5438 8.88522 42.9065 8.62112C42.2692 8.35701 41.5862 8.2211 40.8963 8.22113L27.515 8.2183L27.4754 4.23729C27.4415 0.698929 23.3495 -1.24915 20.5804 0.952778L2.15676 15.6076L2.15747 15.6069Z" fill="#85D9FD"/>
</svg>
