<svg width="18" height="16" viewBox="0 0 18 16" fill="none" xmlns="http://www.w3.org/2000/svg">
<path d="M0.692314 16C0.813589 16.0008 0.932957 15.9709 1.03847 15.9133L14.1923 8.58122C14.2989 8.52309 14.3875 8.43878 14.4491 8.3369C14.5108 8.23503 14.5433 8.11923 14.5433 8.00132C14.5433 7.88341 14.5108 7.76761 14.4491 7.66573C14.3875 7.56386 14.2989 7.47955 14.1923 7.42141L1.03847 0.0893017C0.933224 0.0307992 0.813839 0 0.692314 0C0.570787 0 0.451403 0.0307992 0.346159 0.0893017C0.240511 0.148028 0.152855 0.23259 0.0920677 0.334425C0.0312805 0.43626 -0.000478745 0.551751 5.72205e-06 0.669205V15.3334C5.72205e-06 15.5102 0.0729446 15.6798 0.202778 15.8048C0.332611 15.9298 0.508701 16 0.692314 16ZM12.4615 8.00132L1.38462 14.1803V1.82235L12.4615 8.00132ZM18 0.00264934H16.6154V16H18V0.00264934Z" fill="#219EBC"/>
</svg>
