<svg width="20" height="20" viewBox="0 0 20 20" fill="none" xmlns="http://www.w3.org/2000/svg">
<path d="M18.7633 10.5085C19.157 9.9882 19.375 9.3507 19.375 8.68742C19.375 7.63508 18.7867 6.63898 17.8398 6.08351C17.5961 5.94053 17.3185 5.86528 17.0359 5.86555H11.4156L11.5563 2.98508C11.5891 2.28898 11.343 1.62804 10.8648 1.12414C10.6302 0.875767 10.3471 0.678153 10.0331 0.54351C9.71905 0.408867 9.38074 0.340055 9.03906 0.341326C7.82031 0.341326 6.74219 1.16164 6.41875 2.33586L4.40547 9.62492H4.39844V19.6562H15.468C15.6836 19.6562 15.8945 19.614 16.0891 19.5296C17.2047 19.0538 17.9242 17.964 17.9242 16.7546C17.9242 16.4593 17.882 16.1687 17.7977 15.8874C18.1914 15.3671 18.4094 14.7296 18.4094 14.0663C18.4094 13.771 18.3672 13.4804 18.2828 13.1991C18.6766 12.6788 18.8945 12.0413 18.8945 11.378C18.8898 11.0827 18.8477 10.7898 18.7633 10.5085ZM0.625 10.3749V18.9062C0.625 19.321 0.960156 19.6562 1.375 19.6562H2.89844V9.62492H1.375C0.960156 9.62492 0.625 9.96008 0.625 10.3749Z" fill="#0E5EA3"/>
</svg>
