<svg width="18" height="16" viewBox="0 0 18 16" fill="none" xmlns="http://www.w3.org/2000/svg">
<path fill-rule="evenodd" clip-rule="evenodd" d="M0.599976 1.9998C0.599976 1.68154 0.726404 1.37632 0.951447 1.15128C1.17649 0.926233 1.48172 0.799805 1.79998 0.799805H16.2C16.5182 0.799805 16.8235 0.926233 17.0485 1.15128C17.2735 1.37632 17.4 1.68154 17.4 1.9998C17.4 2.31806 17.2735 2.62329 17.0485 2.84833C16.8235 3.07338 16.5182 3.1998 16.2 3.1998H1.79998C1.48172 3.1998 1.17649 3.07338 0.951447 2.84833C0.726404 2.62329 0.599976 2.31806 0.599976 1.9998ZM0.599976 7.9998C0.599976 7.68154 0.726404 7.37632 0.951447 7.15128C1.17649 6.92623 1.48172 6.7998 1.79998 6.7998H16.2C16.5182 6.7998 16.8235 6.92623 17.0485 7.15128C17.2735 7.37632 17.4 7.68154 17.4 7.9998C17.4 8.31806 17.2735 8.62329 17.0485 8.84833C16.8235 9.07338 16.5182 9.1998 16.2 9.1998H1.79998C1.48172 9.1998 1.17649 9.07338 0.951447 8.84833C0.726404 8.62329 0.599976 8.31806 0.599976 7.9998ZM0.599976 13.9998C0.599976 13.6815 0.726404 13.3763 0.951447 13.1513C1.17649 12.9262 1.48172 12.7998 1.79998 12.7998H16.2C16.5182 12.7998 16.8235 12.9262 17.0485 13.1513C17.2735 13.3763 17.4 13.6815 17.4 13.9998C17.4 14.3181 17.2735 14.6233 17.0485 14.8483C16.8235 15.0734 16.5182 15.1998 16.2 15.1998H1.79998C1.48172 15.1998 1.17649 15.0734 0.951447 14.8483C0.726404 14.6233 0.599976 14.3181 0.599976 13.9998Z" fill="#0E5EA3"/>
</svg>
