<svg width="47" height="40" viewBox="0 0 47 40" fill="none" xmlns="http://www.w3.org/2000/svg">
<path d="M44.0914 24.5801C46.7544 22.4958 46.7808 18.4745 44.1463 16.3545L25.7995 1.59949C23.0322 -0.6269 18.9157 1.32381 18.8858 4.8769L18.8534 8.76514L5.48739 8.6617C4.09593 8.65079 2.75706 9.19273 1.76496 10.1684C0.772856 11.1441 0.208689 12.4738 0.196418 13.8652L0.0869697 26.3685C0.0810005 27.0584 0.211042 27.7426 0.469656 28.3821C0.72827 29.0217 1.11039 29.6039 1.59416 30.0957C2.07794 30.5875 2.65389 30.9791 3.2891 31.2482C3.92431 31.5172 4.60632 31.6585 5.29614 31.6638L18.677 31.7709L18.6856 35.7521C18.6919 39.2906 22.7687 41.2705 25.5548 39.0902L44.0921 24.5794L44.0914 24.5801Z" fill="#85D9FD"/>
</svg>
