<svg width="20" height="20" viewBox="0 0 20 20" fill="none" xmlns="http://www.w3.org/2000/svg">
<path d="M7.92805 9.23979C8.03274 9.78373 8.02389 10.3434 7.90205 10.8838L12.9421 13.4208C13.57 12.6768 14.4476 12.1873 15.4106 12.0442C16.3736 11.901 17.3557 12.1139 18.1729 12.643C18.9901 13.1722 19.5863 13.9812 19.8497 14.9184C20.1131 15.8556 20.0257 16.8567 19.6038 17.7341C19.1819 18.6115 18.4545 19.3049 17.5579 19.6843C16.6613 20.0638 15.6572 20.1032 14.7336 19.7953C13.8101 19.4873 13.0305 18.8531 12.5411 18.0116C12.0517 17.17 11.886 16.1788 12.0751 15.2238L6.98505 12.6618C6.44196 13.2709 5.72558 13.6993 4.93202 13.8895C4.13846 14.0798 3.30571 14.0227 2.54549 13.7261C1.78527 13.4295 1.13397 12.9074 0.678972 12.23C0.223977 11.5526 -0.0129379 10.7522 1.59468e-05 9.93623C0.0129698 9.12029 0.275173 8.32784 0.751442 7.6652C1.22771 7.00256 1.89526 6.50144 2.66451 6.22908C3.43376 5.95673 4.26791 5.92617 5.05503 6.14151C5.84215 6.35684 6.54457 6.80777 7.06805 7.43379L12.1041 4.91179C11.882 3.96391 12.0133 2.96758 12.4733 2.10957C12.9333 1.25155 13.6904 0.590738 14.6027 0.250991C15.515 -0.0887548 16.52 -0.0841129 17.4291 0.264047C18.3383 0.612207 19.0893 1.27998 19.5413 2.14221C19.9933 3.00444 20.1154 4.00194 19.8846 4.94773C19.6538 5.89352 19.086 6.72268 18.2877 7.2798C17.4893 7.83692 16.5152 8.08375 15.5478 7.97403C14.5805 7.86431 13.6864 7.40557 13.0331 6.68379L7.92805 9.23979Z" fill="#0E5EA3"/>
</svg>
